<?xml version="1.0" encoding="UTF-8"?>
<svg id="mindmap" class="markmap mindmap" viewBox="-21 -347.0562438964844 943 696.3062744140625" width="2829" height="2089" xmlns="http://www.w3.org/2000/svg" xmlns:xlink="http://www.w3.org/1999/xlink"><style>
        .markmap-node > line { stroke-linecap: round; }
        text { dominant-baseline: alphabetic; }
      </style><style>.markmap {
  --markmap-max-width: 9999px;
  --markmap-a-color: #0097e6;
  --markmap-a-hover-color: #00a8ff;
  --markmap-code-bg: #f0f0f0;
  --markmap-code-color: #555;
  --markmap-highlight-bg: #ffeaa7;
  --markmap-table-border: 1px solid currentColor;
  --markmap-font: 300 16px/20px sans-serif;
  --markmap-circle-open-bg: #fff;
  --markmap-text-color: #333;
  --markmap-highlight-node-bg: #ff02;

  font: var(--markmap-font);
  color: var(--markmap-text-color);
}

  .markmap-link {
    fill: none;
  }

  .markmap-node &gt; circle {
      cursor: pointer;
    }

  .markmap-foreign {
    display: inline-block;
  }

  .markmap-foreign p {
      margin: 0;
    }

  .markmap-foreign a {
      color: var(--markmap-a-color);
    }

  .markmap-foreign a:hover {
        color: var(--markmap-a-hover-color);
      }

  .markmap-foreign code {
      padding: 0.25em;
      font-size: calc(1em - 2px);
      color: var(--markmap-code-color);
      background-color: var(--markmap-code-bg);
      border-radius: 2px;
    }

  .markmap-foreign pre {
      margin: 0;
    }

  .markmap-foreign pre &gt; code {
        display: block;
      }

  .markmap-foreign del {
      text-decoration: line-through;
    }

  .markmap-foreign em {
      font-style: italic;
    }

  .markmap-foreign strong {
      font-weight: bold;
    }

  .markmap-foreign mark {
      background: var(--markmap-highlight-bg);
    }

  .markmap-foreign table,
    .markmap-foreign th,
    .markmap-foreign td {
      border-collapse: collapse;
      border: var(--markmap-table-border);
    }

  .markmap-foreign img {
      display: inline-block;
    }

  .markmap-foreign svg {
      fill: currentColor;
    }

  .markmap-foreign &gt; div {
      width: var(--markmap-max-width);
      text-align: left;
    }

  .markmap-foreign &gt; div &gt; div {
        display: inline-block;
      }

  .markmap-highlight rect {
    fill: var(--markmap-highlight-node-bg);
  }

.markmap-dark .markmap {
  --markmap-code-bg: #1a1b26;
  --markmap-code-color: #ddd;
  --markmap-circle-open-bg: #444;
  --markmap-text-color: #eee;
}
</style><g><path class="markmap-link" data-depth="4" data-path="1.2.3.4" d="M573,-281.781C613,-281.781,613,-308.062,653,-308.062" stroke-width="1.1875" stroke="rgb(214, 39, 40)"/><path class="markmap-link" data-depth="4" data-path="1.2.3.5" d="M573,-281.781C613,-281.781,613,-281.875,653,-281.875" stroke-width="1.1875" stroke="rgb(148, 103, 189)"/><path class="markmap-link" data-depth="4" data-path="1.2.3.6" d="M573,-281.781C613,-281.781,613,-255.687,653,-255.687" stroke-width="1.1875" stroke="rgb(140, 86, 75)"/><path class="markmap-link" data-depth="4" data-path="1.2.7.8" d="M573,-198.219C613,-198.219,613,-224.5,653,-224.5" stroke-width="1.1875" stroke="rgb(127, 127, 127)"/><path class="markmap-link" data-depth="4" data-path="1.2.7.9" d="M573,-198.219C613,-198.219,613,-198.312,653,-198.312" stroke-width="1.1875" stroke="rgb(188, 189, 34)"/><path class="markmap-link" data-depth="4" data-path="1.2.7.10" d="M573,-198.219C613,-198.219,613,-172.125,653,-172.125" stroke-width="1.1875" stroke="rgb(23, 190, 207)"/><path class="markmap-link" data-depth="3" data-path="1.2.3" d="M397,-239.812C437,-239.812,437,-281.781,477,-281.781" stroke-width="1.375" stroke="rgb(44, 160, 44)"/><path class="markmap-link" data-depth="3" data-path="1.2.7" d="M397,-239.812C437,-239.812,437,-198.219,477,-198.219" stroke-width="1.375" stroke="rgb(227, 119, 194)"/><path class="markmap-link" data-depth="4" data-path="1.11.12.13" d="M557,-114.656C597,-114.656,597,-140.937,637,-140.937" stroke-width="1.1875" stroke="rgb(44, 160, 44)"/><path class="markmap-link" data-depth="4" data-path="1.11.12.14" d="M557,-114.656C597,-114.656,597,-114.75,637,-114.75" stroke-width="1.1875" stroke="rgb(214, 39, 40)"/><path class="markmap-link" data-depth="4" data-path="1.11.12.15" d="M557,-114.656C597,-114.656,597,-88.562,637,-88.562" stroke-width="1.1875" stroke="rgb(148, 103, 189)"/><path class="markmap-link" data-depth="4" data-path="1.11.16.17" d="M573,-31.094C613,-31.094,613,-57.375,653,-57.375" stroke-width="1.1875" stroke="rgb(227, 119, 194)"/><path class="markmap-link" data-depth="4" data-path="1.11.16.18" d="M573,-31.094C613,-31.094,613,-31.187,653,-31.187" stroke-width="1.1875" stroke="rgb(127, 127, 127)"/><path class="markmap-link" data-depth="4" data-path="1.11.16.19" d="M573,-31.094C613,-31.094,613,-5,653,-5" stroke-width="1.1875" stroke="rgb(188, 189, 34)"/><path class="markmap-link" data-depth="3" data-path="1.11.12" d="M397,-72.687C437,-72.687,437,-114.656,477,-114.656" stroke-width="1.375" stroke="rgb(255, 127, 14)"/><path class="markmap-link" data-depth="3" data-path="1.11.16" d="M397,-72.687C437,-72.687,437,-31.094,477,-31.094" stroke-width="1.375" stroke="rgb(140, 86, 75)"/><path class="markmap-link" data-depth="4" data-path="1.20.21.22" d="M557,52.469C597,52.469,597,26.188,637,26.188" stroke-width="1.1875" stroke="rgb(255, 127, 14)"/><path class="markmap-link" data-depth="4" data-path="1.20.21.23" d="M557,52.469C597,52.469,597,52.375,637,52.375" stroke-width="1.1875" stroke="rgb(44, 160, 44)"/><path class="markmap-link" data-depth="4" data-path="1.20.21.24" d="M557,52.469C597,52.469,597,78.563,637,78.563" stroke-width="1.1875" stroke="rgb(214, 39, 40)"/><path class="markmap-link" data-depth="4" data-path="1.20.25.26" d="M557,136.031C597,136.031,597,109.75,637,109.75" stroke-width="1.1875" stroke="rgb(140, 86, 75)"/><path class="markmap-link" data-depth="4" data-path="1.20.25.27" d="M557,136.031C597,136.031,597,135.938,637,135.938" stroke-width="1.1875" stroke="rgb(227, 119, 194)"/><path class="markmap-link" data-depth="4" data-path="1.20.25.28" d="M557,136.031C597,136.031,597,162.125,637,162.125" stroke-width="1.1875" stroke="rgb(127, 127, 127)"/><path class="markmap-link" data-depth="3" data-path="1.20.21" d="M397,94.438C437,94.438,437,52.469,477,52.469" stroke-width="1.375" stroke="rgb(31, 119, 180)"/><path class="markmap-link" data-depth="3" data-path="1.20.25" d="M397,94.438C437,94.438,437,136.031,477,136.031" stroke-width="1.375" stroke="rgb(148, 103, 189)"/><path class="markmap-link" data-depth="4" data-path="1.29.30.31" d="M557,219.594C597,219.594,597,193.313,637,193.313" stroke-width="1.1875" stroke="rgb(31, 119, 180)"/><path class="markmap-link" data-depth="4" data-path="1.29.30.32" d="M557,219.594C597,219.594,597,219.5,637,219.5" stroke-width="1.1875" stroke="rgb(255, 127, 14)"/><path class="markmap-link" data-depth="4" data-path="1.29.30.33" d="M557,219.594C597,219.594,597,245.688,637,245.688" stroke-width="1.1875" stroke="rgb(44, 160, 44)"/><path class="markmap-link" data-depth="4" data-path="1.29.34.35" d="M557,303.156C597,303.156,597,276.875,637,276.875" stroke-width="1.1875" stroke="rgb(148, 103, 189)"/><path class="markmap-link" data-depth="4" data-path="1.29.34.36" d="M557,303.156C597,303.156,597,303.063,637,303.063" stroke-width="1.1875" stroke="rgb(140, 86, 75)"/><path class="markmap-link" data-depth="4" data-path="1.29.34.37" d="M557,303.156C597,303.156,597,329.25,637,329.25" stroke-width="1.1875" stroke="rgb(227, 119, 194)"/><path class="markmap-link" data-depth="3" data-path="1.29.30" d="M397,261.563C437,261.563,437,219.594,477,219.594" stroke-width="1.375" stroke="rgb(23, 190, 207)"/><path class="markmap-link" data-depth="3" data-path="1.29.34" d="M397,261.563C437,261.563,437,303.156,477,303.156" stroke-width="1.375" stroke="rgb(214, 39, 40)"/><path class="markmap-link" data-depth="2" data-path="1.2" d="M237,11.25C277,11.25,277,-239.812,317,-239.812" stroke-width="1.75" stroke="rgb(255, 127, 14)"/><path class="markmap-link" data-depth="2" data-path="1.11" d="M237,11.25C277,11.25,277,-72.687,317,-72.687" stroke-width="1.75" stroke="rgb(31, 119, 180)"/><path class="markmap-link" data-depth="2" data-path="1.20" d="M237,11.25C277,11.25,277,94.438,317,94.438" stroke-width="1.75" stroke="rgb(23, 190, 207)"/><path class="markmap-link" data-depth="2" data-path="1.29" d="M237,11.25C277,11.25,277,261.563,317,261.563" stroke-width="1.75" stroke="rgb(188, 189, 34)"/><g class="markmap-highlight"/><g data-depth="4" data-path="1.2.3.4" class="markmap-node" transform="translate(653, -328.65625)"><line stroke="#d62728" stroke-width="1.1875" x1="-1" x2="162" y1="20.59375" y2="20.59375"/><text x="12" y="15.600000000000001" font-size="16px" font-family="sans-serif" font-weight="300" fill="rgb(51, 51, 51)" dominant-baseline="alphabetic">短视频种草漏斗优化</text></g><g data-depth="4" data-path="1.2.3.5" class="markmap-node" transform="translate(653, -302.46875)"><line stroke="#9467bd" stroke-width="1.1875" x1="-1" x2="150" y1="20.59375" y2="20.59375"/><text x="12" y="15.600000000000001" font-size="16px" font-family="sans-serif" font-weight="300" fill="rgb(51, 51, 51)" dominant-baseline="alphabetic">KOL 矩阵分层投放</text></g><g data-depth="4" data-path="1.2.3.6" class="markmap-node" transform="translate(653, -276.28125)"><line stroke="#8c564b" stroke-width="1.1875" x1="-1" x2="203" y1="20.59375" y2="20.59375"/><text x="12" y="15.600000000000001" font-size="16px" font-family="sans-serif" font-weight="300" fill="rgb(51, 51, 51)" dominant-baseline="alphabetic">跨域联动（直播 → 电商）</text></g><g data-depth="3" data-path="1.2.3" class="markmap-node" transform="translate(477, -302.46875)"><line stroke="#2ca02c" stroke-width="1.375" x1="-1" x2="98" y1="20.6875" y2="20.6875"/><circle stroke-width="1.5" r="6" stroke="#2ca02c" fill="var(--markmap-circle-open-bg)" cx="96" cy="20.6875"/><text x="12" y="15.600000000000001" font-size="16px" font-family="sans-serif" font-weight="300" fill="rgb(51, 51, 51)" dominant-baseline="alphabetic">新用户获取</text></g><g data-depth="4" data-path="1.2.7.8" class="markmap-node" transform="translate(653, -245.09375)"><line stroke="#7f7f7f" stroke-width="1.1875" x1="-1" x2="146" y1="20.59375" y2="20.59375"/><text x="12" y="15.600000000000001" font-size="16px" font-family="sans-serif" font-weight="300" fill="rgb(51, 51, 51)" dominant-baseline="alphabetic">沉默用户召回计划</text></g><g data-depth="4" data-path="1.2.7.9" class="markmap-node" transform="translate(653, -218.90625)"><line stroke="#bcbd22" stroke-width="1.1875" x1="-1" x2="228" y1="20.59375" y2="20.59375"/><text x="12" y="15.600000000000001" font-size="16px" font-family="sans-serif" font-weight="300" fill="rgb(51, 51, 51)" dominant-baseline="alphabetic">会员体系升级（积分 + 权益）</text></g><g data-depth="4" data-path="1.2.7.10" class="markmap-node" transform="translate(653, -192.71875)"><line stroke="#17becf" stroke-width="1.1875" x1="-1" x2="175" y1="20.59375" y2="20.59375"/><text x="12" y="15.600000000000001" font-size="16px" font-family="sans-serif" font-weight="300" fill="rgb(51, 51, 51)" dominant-baseline="alphabetic">个性化 Push 分级策略</text></g><g data-depth="3" data-path="1.2.7" class="markmap-node" transform="translate(477, -218.90625)"><line stroke="#e377c2" stroke-width="1.375" x1="-1" x2="98" y1="20.6875" y2="20.6875"/><circle stroke-width="1.5" r="6" stroke="#e377c2" fill="var(--markmap-circle-open-bg)" cx="96" cy="20.6875"/><text x="12" y="15.600000000000001" font-size="16px" font-family="sans-serif" font-weight="300" fill="rgb(51, 51, 51)" dominant-baseline="alphabetic">老用户激活</text></g><g data-depth="2" data-path="1.2" class="markmap-node" transform="translate(317, -260.6875)"><line stroke="#ff7f0e" stroke-width="1.75" x1="-1" x2="82" y1="20.875" y2="20.875"/><circle stroke-width="1.5" r="6" stroke="#ff7f0e" fill="var(--markmap-circle-open-bg)" cx="80" cy="20.875"/><text x="12" y="15.600000000000001" font-size="16px" font-family="sans-serif" font-weight="300" fill="rgb(51, 51, 51)" dominant-baseline="alphabetic">用户增长</text></g><g data-depth="4" data-path="1.11.12.13" class="markmap-node" transform="translate(637, -161.53125)"><line stroke="#2ca02c" stroke-width="1.1875" x1="-1" x2="139" y1="20.59375" y2="20.59375"/><text x="12" y="15.600000000000001" font-size="16px" font-family="sans-serif" font-weight="300" fill="rgb(51, 51, 51)" dominant-baseline="alphabetic">3C 数码重点招商</text></g><g data-depth="4" data-path="1.11.12.14" class="markmap-node" transform="translate(637, -135.34375)"><line stroke="#d62728" stroke-width="1.1875" x1="-1" x2="210" y1="20.59375" y2="20.59375"/><text x="12" y="15.600000000000001" font-size="16px" font-family="sans-serif" font-weight="300" fill="rgb(51, 51, 51)" dominant-baseline="alphabetic">跨境商品引入（日韩美妆）</text></g><g data-depth="4" data-path="1.11.12.15" class="markmap-node" transform="translate(637, -109.15625)"><line stroke="#9467bd" stroke-width="1.1875" x1="-1" x2="162" y1="20.59375" y2="20.59375"/><text x="12" y="15.600000000000001" font-size="16px" font-family="sans-serif" font-weight="300" fill="rgb(51, 51, 51)" dominant-baseline="alphabetic">内容消费品定制开发</text></g><g data-depth="3" data-path="1.11.12" class="markmap-node" transform="translate(477, -135.34375)"><line stroke="#ff7f0e" stroke-width="1.375" x1="-1" x2="82" y1="20.6875" y2="20.6875"/><circle stroke-width="1.5" r="6" stroke="#ff7f0e" fill="var(--markmap-circle-open-bg)" cx="80" cy="20.6875"/><text x="12" y="15.600000000000001" font-size="16px" font-family="sans-serif" font-weight="300" fill="rgb(51, 51, 51)" dominant-baseline="alphabetic">品类扩张</text></g><g data-depth="4" data-path="1.11.16.17" class="markmap-node" transform="translate(653, -77.96875)"><line stroke="#e377c2" stroke-width="1.1875" x1="-1" x2="162" y1="20.59375" y2="20.59375"/><text x="12" y="15.600000000000001" font-size="16px" font-family="sans-serif" font-weight="300" fill="rgb(51, 51, 51)" dominant-baseline="alphabetic">产地直采提升利润率</text></g><g data-depth="4" data-path="1.11.16.18" class="markmap-node" transform="translate(653, -51.78125)"><line stroke="#7f7f7f" stroke-width="1.1875" x1="-1" x2="146" y1="20.59375" y2="20.59375"/><text x="12" y="15.600000000000001" font-size="16px" font-family="sans-serif" font-weight="300" fill="rgb(51, 51, 51)" dominant-baseline="alphabetic">平台自营白牌孵化</text></g><g data-depth="4" data-path="1.11.16.19" class="markmap-node" transform="translate(653, -25.59375)"><line stroke="#bcbd22" stroke-width="1.1875" x1="-1" x2="130" y1="20.59375" y2="20.59375"/><text x="12" y="15.600000000000001" font-size="16px" font-family="sans-serif" font-weight="300" fill="rgb(51, 51, 51)" dominant-baseline="alphabetic">退货率治理专项</text></g><g data-depth="3" data-path="1.11.16" class="markmap-node" transform="translate(477, -51.78125)"><line stroke="#8c564b" stroke-width="1.375" x1="-1" x2="98" y1="20.6875" y2="20.6875"/><circle stroke-width="1.5" r="6" stroke="#8c564b" fill="var(--markmap-circle-open-bg)" cx="96" cy="20.6875"/><text x="12" y="15.600000000000001" font-size="16px" font-family="sans-serif" font-weight="300" fill="rgb(51, 51, 51)" dominant-baseline="alphabetic">供应链优化</text></g><g data-depth="2" data-path="1.11" class="markmap-node" transform="translate(317, -93.5625)"><line stroke="#1f77b4" stroke-width="1.75" x1="-1" x2="82" y1="20.875" y2="20.875"/><circle stroke-width="1.5" r="6" stroke="#1f77b4" fill="var(--markmap-circle-open-bg)" cx="80" cy="20.875"/><text x="12" y="15.600000000000001" font-size="16px" font-family="sans-serif" font-weight="300" fill="rgb(51, 51, 51)" dominant-baseline="alphabetic">商品供给</text></g><g data-depth="4" data-path="1.20.21.22" class="markmap-node" transform="translate(637, 5.59375)"><line stroke="#ff7f0e" stroke-width="1.1875" x1="-1" x2="265" y1="20.59375" y2="20.59375"/><text x="12" y="15.600000000000001" font-size="16px" font-family="sans-serif" font-weight="300" fill="rgb(51, 51, 51)" dominant-baseline="alphabetic">次日达城市扩覆盖（目标 TOP50）</text></g><g data-depth="4" data-path="1.20.21.23" class="markmap-node" transform="translate(637, 31.78125)"><line stroke="#2ca02c" stroke-width="1.1875" x1="-1" x2="162" y1="20.59375" y2="20.59375"/><text x="12" y="15.600000000000001" font-size="16px" font-family="sans-serif" font-weight="300" fill="rgb(51, 51, 51)" dominant-baseline="alphabetic">仓网布局下沉三四线</text></g><g data-depth="4" data-path="1.20.21.24" class="markmap-node" transform="translate(637, 57.96875)"><line stroke="#d62728" stroke-width="1.1875" x1="-1" x2="152" y1="20.59375" y2="20.59375"/><text x="12" y="15.600000000000001" font-size="16px" font-family="sans-serif" font-weight="300" fill="rgb(51, 51, 51)" dominant-baseline="alphabetic">揽收时效 SLA 管控</text></g><g data-depth="3" data-path="1.20.21" class="markmap-node" transform="translate(477, 31.78125)"><line stroke="#1f77b4" stroke-width="1.375" x1="-1" x2="82" y1="20.6875" y2="20.6875"/><circle stroke-width="1.5" r="6" stroke="#1f77b4" fill="var(--markmap-circle-open-bg)" cx="80" cy="20.6875"/><text x="12" y="15.600000000000001" font-size="16px" font-family="sans-serif" font-weight="300" fill="rgb(51, 51, 51)" dominant-baseline="alphabetic">物流提速</text></g><g data-depth="4" data-path="1.20.25.26" class="markmap-node" transform="translate(637, 89.15625)"><line stroke="#8c564b" stroke-width="1.1875" x1="-1" x2="146" y1="20.59375" y2="20.59375"/><text x="12" y="15.600000000000001" font-size="16px" font-family="sans-serif" font-weight="300" fill="rgb(51, 51, 51)" dominant-baseline="alphabetic">自动审核退款提速</text></g><g data-depth="4" data-path="1.20.25.27" class="markmap-node" transform="translate(637, 115.34375)"><line stroke="#e377c2" stroke-width="1.1875" x1="-1" x2="206" y1="20.59375" y2="20.59375"/><text x="12" y="15.600000000000001" font-size="16px" font-family="sans-serif" font-weight="300" fill="rgb(51, 51, 51)" dominant-baseline="alphabetic">客服 AI 接管率提升至 70%</text></g><g data-depth="4" data-path="1.20.25.28" class="markmap-node" transform="translate(637, 141.53125)"><line stroke="#7f7f7f" stroke-width="1.1875" x1="-1" x2="167" y1="20.59375" y2="20.59375"/><text x="12" y="15.600000000000001" font-size="16px" font-family="sans-serif" font-weight="300" fill="rgb(51, 51, 51)" dominant-baseline="alphabetic">NPS 月度追踪与回访</text></g><g data-depth="3" data-path="1.20.25" class="markmap-node" transform="translate(477, 115.34375)"><line stroke="#9467bd" stroke-width="1.375" x1="-1" x2="82" y1="20.6875" y2="20.6875"/><circle stroke-width="1.5" r="6" stroke="#9467bd" fill="var(--markmap-circle-open-bg)" cx="80" cy="20.6875"/><text x="12" y="15.600000000000001" font-size="16px" font-family="sans-serif" font-weight="300" fill="rgb(51, 51, 51)" dominant-baseline="alphabetic">售后升级</text></g><g data-depth="2" data-path="1.20" class="markmap-node" transform="translate(317, 73.5625)"><line stroke="#17becf" stroke-width="1.75" x1="-1" x2="82" y1="20.875" y2="20.875"/><circle stroke-width="1.5" r="6" stroke="#17becf" fill="var(--markmap-circle-open-bg)" cx="80" cy="20.875"/><text x="12" y="15.600000000000001" font-size="16px" font-family="sans-serif" font-weight="300" fill="rgb(51, 51, 51)" dominant-baseline="alphabetic">履约体验</text></g><g data-depth="4" data-path="1.29.30.31" class="markmap-node" transform="translate(637, 172.71875)"><line stroke="#1f77b4" stroke-width="1.1875" x1="-1" x2="155" y1="20.59375" y2="20.59375"/><text x="12" y="15.600000000000001" font-size="16px" font-family="sans-serif" font-weight="300" fill="rgb(51, 51, 51)" dominant-baseline="alphabetic">GMV 预测模型迭代</text></g><g data-depth="4" data-path="1.29.30.32" class="markmap-node" transform="translate(637, 198.90625)"><line stroke="#ff7f0e" stroke-width="1.1875" x1="-1" x2="181" y1="20.59375" y2="20.59375"/><text x="12" y="15.600000000000001" font-size="16px" font-family="sans-serif" font-weight="300" fill="rgb(51, 51, 51)" dominant-baseline="alphabetic">商品推荐算法 A/B 闭环</text></g><g data-depth="4" data-path="1.29.30.33" class="markmap-node" transform="translate(637, 225.09375)"><line stroke="#2ca02c" stroke-width="1.1875" x1="-1" x2="146" y1="20.59375" y2="20.59375"/><text x="12" y="15.600000000000001" font-size="16px" font-family="sans-serif" font-weight="300" fill="rgb(51, 51, 51)" dominant-baseline="alphabetic">实时大盘监控告警</text></g><g data-depth="3" data-path="1.29.30" class="markmap-node" transform="translate(477, 198.90625)"><line stroke="#17becf" stroke-width="1.375" x1="-1" x2="82" y1="20.6875" y2="20.6875"/><circle stroke-width="1.5" r="6" stroke="#17becf" fill="var(--markmap-circle-open-bg)" cx="80" cy="20.6875"/><text x="12" y="15.600000000000001" font-size="16px" font-family="sans-serif" font-weight="300" fill="rgb(51, 51, 51)" dominant-baseline="alphabetic">智能运营</text></g><g data-depth="4" data-path="1.29.34.35" class="markmap-node" transform="translate(637, 256.28125)"><line stroke="#9467bd" stroke-width="1.1875" x1="-1" x2="162" y1="20.59375" y2="20.59375"/><text x="12" y="15.600000000000001" font-size="16px" font-family="sans-serif" font-weight="300" fill="rgb(51, 51, 51)" dominant-baseline="alphabetic">多触点归因模型上线</text></g><g data-depth="4" data-path="1.29.34.36" class="markmap-node" transform="translate(637, 282.46875)"><line stroke="#8c564b" stroke-width="1.1875" x1="-1" x2="179" y1="20.59375" y2="20.59375"/><text x="12" y="15.600000000000001" font-size="16px" font-family="sans-serif" font-weight="300" fill="rgb(51, 51, 51)" dominant-baseline="alphabetic">ROI 分品类精细化核算</text></g><g data-depth="4" data-path="1.29.34.37" class="markmap-node" transform="translate(637, 308.65625)"><line stroke="#e377c2" stroke-width="1.1875" x1="-1" x2="146" y1="20.59375" y2="20.59375"/><text x="12" y="15.600000000000001" font-size="16px" font-family="sans-serif" font-weight="300" fill="rgb(51, 51, 51)" dominant-baseline="alphabetic">竞品价格智能监测</text></g><g data-depth="3" data-path="1.29.34" class="markmap-node" transform="translate(477, 282.46875)"><line stroke="#d62728" stroke-width="1.375" x1="-1" x2="82" y1="20.6875" y2="20.6875"/><circle stroke-width="1.5" r="6" stroke="#d62728" fill="var(--markmap-circle-open-bg)" cx="80" cy="20.6875"/><text x="12" y="15.600000000000001" font-size="16px" font-family="sans-serif" font-weight="300" fill="rgb(51, 51, 51)" dominant-baseline="alphabetic">增长归因</text></g><g data-depth="2" data-path="1.29" class="markmap-node" transform="translate(317, 240.6875)"><line stroke="#bcbd22" stroke-width="1.75" x1="-1" x2="82" y1="20.875" y2="20.875"/><circle stroke-width="1.5" r="6" stroke="#bcbd22" fill="var(--markmap-circle-open-bg)" cx="80" cy="20.875"/><text x="12" y="15.600000000000001" font-size="16px" font-family="sans-serif" font-weight="300" fill="rgb(51, 51, 51)" dominant-baseline="alphabetic">数据驱动</text></g><g data-depth="1" data-path="1" class="markmap-node" transform="translate(0, -10)"><line stroke="#1f77b4" stroke-width="2.5" x1="-1" x2="239" y1="21.25" y2="21.25"/><circle stroke-width="1.5" r="6" stroke="#1f77b4" fill="var(--markmap-circle-open-bg)" cx="237" cy="21.25"/><text x="12" y="15.600000000000001" font-size="16px" font-family="sans-serif" font-weight="300" fill="rgb(51, 51, 51)" dominant-baseline="alphabetic">快手电商 2025 下半年增长策略</text></g></g></svg>