<svg xmlns="http://www.w3.org/2000/svg" width="960" height="540" viewBox="0 0 960 540" role="img" aria-label="2026.02 Canva 收购 Cavalry">
  <defs>
    <linearGradient id="g" x1="0" y1="0" x2="1" y2="1"><stop offset="0" stop-color="#12372a"/><stop offset="1" stop-color="#0b1020"/></linearGradient>
    <radialGradient id="r" cx="78%" cy="18%" r="60%"><stop offset="0" stop-color="#22c55e" stop-opacity="0.55"/><stop offset="1" stop-color="#22c55e" stop-opacity="0"/></radialGradient>
  </defs>
  <rect width="960" height="540" rx="32" fill="url(#g)"/>
  <rect width="960" height="540" rx="32" fill="url(#r)"/>
  <path d="M70 405 C210 310, 310 458, 452 354 S730 272, 892 370" fill="none" stroke="#f4d35e" stroke-opacity="0.38" stroke-width="6"/>
  <path d="M70 433 C242 333, 328 486, 488 384 S726 304, 892 410" fill="none" stroke="#22c55e" stroke-opacity="0.72" stroke-width="4"/>
  <rect x="52" y="48" width="856" height="444" rx="28" fill="rgba(255,255,255,0.08)" stroke="rgba(255,255,255,0.18)"/>
  <text x="84" y="104" fill="#f4d35e" font-family="Arial, 'PingFang SC', sans-serif" font-size="26" font-weight="700">AI DESIGN TREND MONITOR</text>
  <text x="84" y="150" fill="#ffffff" font-family="Arial, 'PingFang SC', sans-serif" font-size="54" font-weight="800">2026.02</text>
  <text x="780" y="150" fill="#22c55e" font-family="Arial, 'PingFang SC', sans-serif" font-size="78" font-weight="900">01</text>
  <text x="84" y="232" fill="#ffffff" font-family="Arial, 'PingFang SC', sans-serif" font-size="42" font-weight="800">Canva 收购 Cavalr</text>
  <text x="84" y="284" fill="#ffffff" font-family="Arial, 'PingFang SC', sans-serif" font-size="42" font-weight="800">y</text>
  <rect x="84" y="364" width="112" height="6" rx="3" fill="#22c55e"/>
  <text x="84" y="398" fill="rgba(255,255,255,0.82)" font-family="Arial, 'PingFang SC', sans-serif" font-size="24">Canva 收购 2D 动画软件 C</text>
  <text x="84" y="428" fill="rgba(255,255,255,0.82)" font-family="Arial, 'PingFang SC', sans-serif" font-size="24">avalry，说明主流创意平台不满足</text>
  <text x="84" y="458" fill="rgba(255,255,255,0.82)" font-family="Arial, 'PingFang SC', sans-serif" font-size="24">于静态模板，而要覆盖专业动效生产。</text>
  <circle cx="780" cy="378" r="56" fill="#22c55e" fill-opacity="0.18" stroke="#f4d35e" stroke-opacity="0.55" stroke-width="3"/>
  <text x="780" y="390" text-anchor="middle" fill="#f4d35e" font-family="Arial, 'PingFang SC', sans-serif" font-size="24" font-weight="800">HOT</text>
</svg>